<svg width="884" height="587" viewBox="0 0 884 587" fill="none" xmlns="http://www.w3.org/2000/svg">
<path opacity="0.3" d="M12.1652 0C12.1652 0 -67.3535 140.909 180.216 78.2788C427.784 15.6487 389.435 102.088 356.045 145.625C319.847 192.823 271.567 221.557 275.874 268.242C281.529 329.498 392.699 267.951 488.056 306.89C718.313 400.918 521.945 261.927 434.223 306.89C346.501 351.854 336.251 446.045 457.621 442.606C719.733 435.182 630.763 374.463 586.975 406.164C543.187 437.865 493.653 554.912 699.948 505.934C906.243 456.956 864.038 566.385 955.06 578.319C1046.08 590.255 1022.16 586.41 1022.16 586.41L906.005 0H12.1652Z" fill="url(#paint0_linear)"/>
<defs>
<linearGradient id="paint0_linear" x1="159.092" y1="271.621" x2="791.02" y2="-150.592" gradientUnits="userSpaceOnUse">
<stop stop-color="#0074AF" stop-opacity="0"/>
<stop offset="0.983243" stop-color="#4F46E5"/>
</linearGradient>
</defs>
</svg>
